<svg xmlns="http://www.w3.org/2000/svg" xmlns:xlink="http://www.w3.org/1999/xlink" width="12.817" height="12.756" viewBox="0 0 12.817 12.756">
  <defs>
    <clipPath id="clip-path">
      <rect id="Rectangle_25" data-name="Rectangle 25" width="12.817" height="12.756" transform="translate(0 0)" fill="none" stroke="#628254" stroke-width="1"/>
    </clipPath>
  </defs>
  <g id="Group_34" data-name="Group 34" transform="translate(0 0)" clip-path="url(#clip-path)">
    <path id="Path_21" data-name="Path 21" d="M1.548,6.143A3.577,3.577,0,1,0,7.481,7.62,2.029,2.029,0,0,0,8.907,6.555a1.973,1.973,0,0,0-.033-1.886A2.017,2.017,0,0,0,5.685,4.22a1.994,1.994,0,0,0-.554,1.05A3.563,3.563,0,0,0,1.548,6.143Z" fill="none" stroke="#628254" stroke-width="1"/>
    <path id="Path_22" data-name="Path 22" d="M2.582,10.418a2.347,2.347,0,0,1,0-3.321" fill="none" stroke="#628254" stroke-width="1"/>
    <path id="Path_23" data-name="Path 23" d="M9.136,4.3l.919-.919.4.4a1.09,1.09,0,1,0,.356-1.778,1.09,1.09,0,1,0-1.779.355l.4.4-.919.919" fill="none" stroke="#628254" stroke-linecap="round" stroke-linejoin="round" stroke-width="1"/>
  </g>
</svg>
