<?xml version="1.0" encoding="utf-8"?>
<!-- Generator: Adobe Illustrator 28.0.0, SVG Export Plug-In . SVG Version: 6.00 Build 0)  -->
<svg version="1.1" id="Layer_1" xmlns="http://www.w3.org/2000/svg" xmlns:xlink="http://www.w3.org/1999/xlink" x="0px" y="0px"
	 viewBox="0 0 17.9 166.4" style="enable-background:new 0 0 17.9 166.4;" xml:space="preserve">
<style type="text/css">
	.st0{clip-path:url(#SVGID_00000066507792266020995470000005328623731409835418_);}
	.st1{fill:#4E4E4E;}
</style>
<g>
	<defs>
		<rect id="SVGID_1_" width="17.9" height="166.4"/>
	</defs>
	<clipPath id="SVGID_00000163763755825893933100000006249391540677967496_">
		<use xlink:href="#SVGID_1_"  style="overflow:visible;"/>
	</clipPath>
	<g id="Group_7" style="clip-path:url(#SVGID_00000163763755825893933100000006249391540677967496_);">
		<g id="REA">
			<g>
				<path class="st1" d="M11.1,160.7v0.9C9,161.9,8,162.5,8,163.5v1.2h3.1v0.9h-7c-0.1-0.7-0.2-1.4-0.2-1.9c0-0.9,0.2-1.5,0.5-2
					s0.8-0.8,1.5-0.8c0.8,0,1.4,0.4,1.8,1.2c0.2-0.4,0.6-0.7,1.1-0.9C9.2,161,10,160.9,11.1,160.7L11.1,160.7z M5.9,161.9
					c-0.8,0-1.2,0.6-1.2,1.9c0,0.4,0,0.7,0,1h2.5v-1.2C7.2,162.4,6.7,161.9,5.9,161.9L5.9,161.9z"/>
				<path class="st1" d="M11.1,154v4.2H3.9V154h0.8v3.3h2.2v-2.9h0.8v2.9h2.5V154C10.3,154,11.1,154,11.1,154z"/>
			</g>
			<g>
				<path class="st1" d="M11.1,145.3v1l-2.4,0.9v2.9l2.4,0.9v1l-7.2-3v-0.8L11.1,145.3L11.1,145.3z M7.9,147.7l-3,1.1l3,1.1V147.7z"
					/>
			</g>
		</g>
		<g id="L_">
			<g>
				<path class="st1" d="M11.1,138.7v4.4H3.9v-0.9h6.3v-3.5C10.3,138.7,11.1,138.7,11.1,138.7z"/>
			</g>
		</g>
		<g id="FOO">
			<g>
				<path class="st1" d="M11.1,130.4v0.9H3.9V127h0.8v3.5H7v-3.2h0.8v3.2H11.1L11.1,130.4z"/>
				<path class="st1" d="M7.5,117.8c1,0,1.9,0.3,2.6,1s1.1,1.5,1.1,2.5s-0.4,1.9-1.1,2.5s-1.6,1-2.6,1s-1.9-0.3-2.7-1
					s-1.1-1.5-1.1-2.5s0.4-1.9,1.1-2.5S6.5,117.8,7.5,117.8z M7.5,118.8c-0.8,0-1.5,0.2-2.1,0.7c-0.6,0.5-0.8,1.1-0.8,1.9
					s0.3,1.4,0.8,1.9s1.2,0.7,2.1,0.7s1.5-0.2,2.1-0.7s0.8-1.1,0.8-1.9s-0.3-1.4-0.8-1.9C9,119,8.3,118.8,7.5,118.8z"/>
			</g>
			<g>
				<path class="st1" d="M7.5,108.6c1,0,1.9,0.3,2.6,1s1.1,1.5,1.1,2.5s-0.4,1.9-1.1,2.5s-1.6,1-2.6,1s-1.9-0.3-2.7-1
					s-1.1-1.5-1.1-2.5s0.4-1.9,1.1-2.5S6.5,108.6,7.5,108.6z M7.5,109.5c-0.8,0-1.5,0.2-2.1,0.7c-0.6,0.5-0.8,1.1-0.8,1.9
					s0.3,1.4,0.8,1.9s1.2,0.7,2.1,0.7s1.5-0.2,2.1-0.7s0.8-1.1,0.8-1.9s-0.3-1.4-0.8-1.9C9,109.7,8.3,109.5,7.5,109.5z"/>
			</g>
		</g>
		<g id="D_">
			<g>
				<path class="st1" d="M7.3,100.2c1.1,0,2,0.3,2.6,0.8c0.8,0.6,1.2,1.6,1.2,3c0,0.4-0.1,1.1-0.1,2H4.1c-0.1-1.1-0.2-1.9-0.2-2.3
					c0-1.2,0.4-2.1,1.1-2.7C5.5,100.4,6.3,100.2,7.3,100.2L7.3,100.2z M7.3,101.1c-1.8,0-2.7,0.8-2.7,2.5c0,0.3,0,0.7,0.1,1.3h5.5
					c0-0.3,0-0.8,0-1.2c0-1-0.4-1.7-1-2.1C8.8,101.3,8.1,101.1,7.3,101.1L7.3,101.1z"/>
			</g>
		</g>
		<g id="_">
			<g>
				<path class="st1" d="M13.6,91.7v0.9H3.2v-0.9H13.6z"/>
			</g>
		</g>
		<g id="_G">
			<g>
				<path class="st1" d="M10.9,78.1l-0.1,0.5c0.3,0.6,0.4,1.3,0.4,2.2c0,0.9-0.3,1.7-1,2.3s-1.6,0.9-2.7,0.9s-2-0.3-2.6-0.8
					c-0.7-0.6-1.1-1.5-1.1-2.6c0-0.8,0.2-1.6,0.4-2.3L5,78.4c-0.2,0.6-0.4,1.3-0.4,2c0,0.9,0.3,1.6,1,2c0.5,0.3,1.1,0.5,1.9,0.5
					c0.7,0,1.3-0.2,1.8-0.5c0.7-0.4,1-1.1,1-1.9c0-0.6-0.1-1.1-0.2-1.5h-2v1.8H7.3V78L10.9,78.1L10.9,78.1z"/>
			</g>
		</g>
		<g id="OOD">
			<g>
				<path class="st1" d="M7.5,68.7c1,0,1.9,0.3,2.6,1s1.1,1.5,1.1,2.5s-0.4,1.9-1.1,2.5s-1.6,1-2.6,1s-1.9-0.3-2.7-1
					s-1.1-1.5-1.1-2.5s0.4-1.9,1.1-2.5C5.6,69,6.5,68.7,7.5,68.7z M7.5,69.6c-0.8,0-1.5,0.2-2.1,0.7s-0.8,1.1-0.8,1.9
					s0.3,1.4,0.8,1.9s1.2,0.7,2.1,0.7s1.5-0.2,2.1-0.7s0.8-1.1,0.8-1.9s-0.3-1.4-0.8-1.9S8.3,69.6,7.5,69.6z"/>
				<path class="st1" d="M7.5,59.5c1,0,1.9,0.3,2.6,1c0.7,0.7,1.1,1.5,1.1,2.5s-0.4,1.9-1.1,2.5s-1.6,1-2.6,1s-1.9-0.3-2.7-1
					S3.8,64,3.8,63s0.4-1.9,1.1-2.5S6.5,59.5,7.5,59.5z M7.5,60.4c-0.8,0-1.5,0.2-2.1,0.7S4.6,62.2,4.6,63s0.3,1.4,0.8,1.9
					s1.2,0.7,2.1,0.7s1.5-0.2,2.1-0.7s0.8-1.1,0.8-1.9s-0.3-1.4-0.8-1.9S8.3,60.4,7.5,60.4z"/>
			</g>
			<g>
				<path class="st1" d="M7.3,51c1.1,0,2,0.3,2.6,0.8c0.8,0.6,1.2,1.6,1.2,3c0,0.4-0.1,1.1-0.1,2H4.1c-0.1-1.1-0.2-1.9-0.2-2.3
					c0-1.2,0.4-2.1,1.1-2.7C5.5,51.3,6.3,51,7.3,51L7.3,51z M7.3,52c-1.8,0-2.7,0.8-2.7,2.5c0,0.3,0,0.7,0.1,1.3h5.5
					c0-0.3,0-0.8,0-1.2c0-1-0.4-1.7-1-2.1C8.8,52.2,8.1,52,7.3,52L7.3,52z"/>
			</g>
		</g>
		<g id="HEA">
			<g>
				<path class="st1" d="M11.1,38v0.9H7.7v3.7h3.4v0.9H3.9v-0.9h2.9v-3.7H3.9V38H11.1z"/>
				<path class="st1" d="M11.1,30.7V35H3.9v-4.2h0.8V34h2.2v-2.9h0.8V34h2.5v-3.3C10.3,30.7,11.1,30.7,11.1,30.7z"/>
			</g>
			<g>
				<path class="st1" d="M11.1,22v1l-2.4,1v2.9l2.4,0.9v1l-7.2-3v-0.8L11.1,22L11.1,22z M7.9,24.4l-3,1l3,1.1V24.4z"/>
			</g>
		</g>
		<g id="L">
			<g>
				<path class="st1" d="M11.1,15.4v4.4H3.9v-0.9h6.3v-3.5C10.3,15.4,11.1,15.4,11.1,15.4z"/>
			</g>
		</g>
		<g id="T">
			<g>
				<path class="st1" d="M11.1,11.3v0.9H4.7v2.6H3.9V8.7h0.8v2.6C4.7,11.3,11.1,11.3,11.1,11.3z"/>
			</g>
		</g>
		<g id="H">
			<g>
				<path class="st1" d="M11.1,0.8v0.9H7.7v3.7h3.4v0.9H3.9V5.4h2.9V1.7H3.9V0.7C3.9,0.7,11.1,0.7,11.1,0.8z"/>
			</g>
		</g>
	</g>
</g>
</svg>
