<?xml version="1.0" encoding="utf-8"?>
<!-- Generator: Adobe Illustrator 27.9.0, SVG Export Plug-In . SVG Version: 6.00 Build 0)  -->
<svg version="1.1" id="Layer_1" xmlns="http://www.w3.org/2000/svg" xmlns:xlink="http://www.w3.org/1999/xlink" x="0px" y="0px"
	 viewBox="0 0 73 32" style="enable-background:new 0 0 73 32;" xml:space="preserve">
<style type="text/css">
	.st0{fill:none;}
	.st1{fill:#3D3D3D;}
	.st2{fill:#8F9759;}
</style>
<rect class="st0" width="73" height="32"/>
<path id="Path_31" class="st1" d="M14.9,28.3c0,2.5-1.7,3.7-5.2,3.7c-3.5,0-5.2-1.2-5.2-3.7v-7.6c-0.4,0.2-0.8,0.3-1.2,0.3
	c-0.7,0-1.4-0.3-1.9-0.8c-1-1-1-2.7,0-3.7c0,0,0,0,0,0c0.5-0.5,1.2-0.8,1.9-0.8c0.7,0,1.4,0.3,1.9,0.8c0.5,0.5,0.8,1.2,0.8,1.9v9.9
	c0,1.7,1.3,2.5,3.8,2.5c2.5,0,3.7-0.8,3.7-2.5V9.3h1.4L14.9,28.3z M4.6,18.3c0-0.4-0.1-0.7-0.4-1c-0.3-0.3-0.6-0.4-1-0.4
	c-0.4,0-0.7,0.1-1,0.4c-0.5,0.5-0.5,1.4,0,1.9c0,0,0,0,0,0c0.3,0.3,0.6,0.4,1,0.4c0.4,0,0.7-0.1,1-0.4C4.5,19,4.6,18.7,4.6,18.3"/>
<path id="Path_32" class="st1" d="M11.8,13.5c-2.8-1-5.7-1.6-8.7-1.6c-1.1,0-2.1,0.1-3.2,0.2c0-1.3,0.6-2.6,1.7-3.4
	c1-0.8,2.3-1.2,3.6-1.2C9,7.5,11.1,9.5,11.8,13.5 M10.3,11.9C9.1,9.8,7.5,8.7,5.4,8.7c-1.6-0.2-3.1,0.7-3.8,2.1
	c0.6-0.1,1.3-0.1,1.9-0.1C5.8,10.6,8.1,11.1,10.3,11.9"/>
<rect id="Rectangle_33" x="10.3" y="0" class="st1" width="1.3" height="4.4"/>
<path id="Path_33" class="st1" d="M32.5,29.4c0,0.7-0.3,1.4-0.8,1.8c-0.5,0.5-1.2,0.8-1.9,0.8c-1.4,0-2.6-1.2-2.6-2.6c0,0,0,0,0,0
	v-0.3c-1.5,0.5-2.8,1.4-3.8,2.6h-1.8v-11c-0.4,0.2-0.8,0.3-1.2,0.3c-1.5,0-2.6-1.2-2.6-2.6c0-1.5,1.2-2.6,2.6-2.6
	c1.5,0,2.6,1.2,2.6,2.6v11.8c0.8-0.8,1.8-1.4,2.8-1.8c1-0.4,2-1,3-1.6c0.9-0.6,1.4-1.7,1.4-2.8v-8h1.4v8.2c0.1,1-0.2,2-0.9,2.8
	C31.8,27.3,32.5,28.3,32.5,29.4 M21.8,18.3c0-0.8-0.6-1.4-1.4-1.4s-1.4,0.6-1.4,1.4c0,0.8,0.6,1.4,1.4,1.4c0.4,0,0.7-0.1,1-0.4
	C21.6,19,21.8,18.7,21.8,18.3 M31.2,29.4c0-0.8-0.6-1.4-1.4-1.4s-1.4,0.6-1.4,1.4s0.6,1.4,1.4,1.4c0.4,0,0.7-0.1,1-0.4
	C31.1,30.1,31.2,29.7,31.2,29.4"/>
<path id="Path_34" class="st1" d="M42.8,29.3c0,1.5-1.2,2.7-2.7,2.7c-0.8,0-1.5-0.3-2-0.9c-0.5-0.5-0.7-1.2-0.7-1.8V12.6
	c0-0.7-0.6-1.5-1.7-2.2c-1-0.6-2.1-1-3.3-1.1c0.1-2.5,1.4-3.8,3.7-3.8c0.7,0.1,1.4,0.3,2.1,0.6c0.6,0.3,1.3,0.5,1.9,0.6
	c0.5,0,0.8-0.3,0.9-1l1.2,0.3c-0.4,1.3-1,2-1.9,2c-0.7-0.1-1.5-0.3-2.1-0.7c-0.7-0.4-1.4-0.6-2.2-0.7c-1.2,0-1.8,0.5-1.9,1.5
	c3.2,0.9,4.8,2.4,4.8,4.4v14.1c0.4-0.2,0.8-0.3,1.3-0.3c0.7,0,1.4,0.3,1.9,0.8C42.5,27.9,42.8,28.6,42.8,29.3 M41.5,29.3
	c0-0.4-0.1-0.7-0.4-1c-0.3-0.3-0.6-0.4-1-0.4c-0.3,0-0.7,0.1-0.9,0.4c-0.3,0.3-0.4,0.6-0.4,1c0,0.4,0.1,0.7,0.4,1
	c0.2,0.3,0.6,0.4,0.9,0.4c0.4,0,0.7-0.1,1-0.4C41.3,30,41.5,29.6,41.5,29.3"/>
<path id="Path_35" class="st1" d="M56.8,31.7h-1.4V21.3c0-2-0.6-3.4-1.9-4.1c-0.6,0.5-1.4,1.3-2.6,2.4l-2.7-2.4
	c-1.4,0.9-2.1,2.5-2,4.2c0.1,1.2,0.3,2.3,0.6,3.4c0.4,1.2,0.6,2.5,0.6,3.8c0.4-0.7,1-1.3,1.6-1.8c0.6-0.5,1.2-1,1.6-1.6
	c-0.6,0-1.1-0.3-1.5-0.7c-0.4-0.4-0.6-1-0.6-1.6c0-0.6,0.2-1.2,0.7-1.7c0.4-0.5,1-0.7,1.7-0.7c1.3,0,2.3,1,2.4,2.3c0,0,0,0.1,0,0.1
	c0,1.2-0.9,2.7-2.8,4.4s-2.8,3.2-2.9,4.5h-1.4v-3.6c-0.1-1.1-0.3-2.2-0.7-3.3c-0.4-1.1-0.6-2.1-0.7-3.3c0-1.2,0.3-2.5,0.9-3.6
	c0.6-1.1,1.6-2,2.8-2.3l2.5,2.2l2.3-2.2c1.2,0.2,2.2,1,2.8,2c0.6,1,0.9,2.2,0.9,3.4V31.7z M52.2,22.7c0-0.7-0.6-1.2-1.2-1.2
	c-0.7,0-1.2,0.6-1.2,1.2c0,0.7,0.6,1.2,1.2,1.2c0.3,0,0.6-0.1,0.9-0.4C52.1,23.4,52.2,23.1,52.2,22.7"/>
<polygon class="st2" points="73,23.2 67.3,23.2 67.3,17.5 65.6,17.5 65.6,23.2 60.2,23.2 60.2,24.9 65.6,24.9 65.6,30.3 67.3,30.3
	67.3,24.9 73,24.9 "/>
</svg>
