<svg xmlns="http://www.w3.org/2000/svg" xmlns:xlink="http://www.w3.org/1999/xlink" width="20.537" height="13.716" viewBox="0 0 20.537 13.716">
  <defs>
    <clipPath id="clip-path">
      <rect id="Rectangle_528" data-name="Rectangle 528" width="20.537" height="13.716" transform="translate(0 0)" fill="none" stroke="#628254" stroke-width="1"/>
    </clipPath>
  </defs>
  <g id="Group_85" data-name="Group 85" transform="translate(0 0)" clip-path="url(#clip-path)">
    <path id="Path_59" data-name="Path 59" d="M18.113,8.315l-2.4-3.99c-.356-.592-.371-.985.7-1.677H14a9.567,9.567,0,0,0,.128,1.558l.192,1.161a5.046,5.046,0,0,1-.336,2.8L13.2,9.843H11.281c-.558,0-.971-.307-.764-.825L11,7.81H4.434A4.371,4.371,0,0,0,3.111,10.1c-.1,1.171.051,1.425,1.425,1.425H14.869s.763-4.92,5.293-2.587" fill="none" stroke="#628254" stroke-linecap="round" stroke-linejoin="round" stroke-width="1"/>
    <path id="Path_60" data-name="Path 60" d="M19.928,11.525A1.815,1.815,0,1,1,18.113,9.71,1.815,1.815,0,0,1,19.928,11.525Z" fill="none" stroke="#628254" stroke-linecap="round" stroke-width="1"/>
    <path id="Path_61" data-name="Path 61" d="M7.777,11.525a1.816,1.816,0,0,1-3.631,0" fill="none" stroke="#628254" stroke-linecap="round" stroke-width="1"/>
    <path id="Rectangle_527" data-name="Rectangle 527" d="M.608,0H4.419a.607.607,0,0,1,.607.607V3.54a.608.608,0,0,1-.608.608H.608A.608.608,0,0,1,0,3.54V.608A.608.608,0,0,1,.608,0Z" transform="translate(4.415 3.662)" fill="none" stroke="#628254" stroke-linecap="round" stroke-width="1"/>
  </g>
</svg>
